<svg width="135" height="50" viewBox="0 0 135 50" fill="none" xmlns="http://www.w3.org/2000/svg">
<path d="M9.09476 20.5621C8.53663 20.5621 8.08426 21.0144 8.08426 21.5726V24.8737C8.08426 25.432 8.53676 25.8842 9.09476 25.8842C9.65288 25.8842 10.1053 25.4319 10.1053 24.8737V21.5727C10.1053 21.0145 9.65288 20.5621 9.09476 20.5621Z" fill="black"/>
<path d="M62.9895 42.7264H62.8547C62.2966 42.7264 61.8442 43.1786 61.8442 43.7369C61.8442 44.2951 62.2967 44.7474 62.8547 44.7474H62.9895C63.5476 44.7474 64 44.2951 64 43.7369C64 43.1788 63.5475 42.7264 62.9895 42.7264Z" fill="black"/>
<path d="M6.40001 42.7264H6.26526C5.70714 42.7264 5.25476 43.1786 5.25476 43.7369C5.25476 44.2951 5.70726 44.7474 6.26526 44.7474H6.40001C6.95814 44.7474 7.41051 44.2951 7.41051 43.7369C7.41051 43.1788 6.95814 42.7264 6.40001 42.7264Z" fill="black"/>
<path d="M57.7348 42.7264H57.6C57.0419 42.7264 56.5895 43.1786 56.5895 43.7369C56.5895 44.2951 57.042 44.7474 57.6 44.7474H57.7348C58.2929 44.7474 58.7453 44.2951 58.7453 43.7369C58.7453 43.1788 58.2929 42.7264 57.7348 42.7264Z" fill="black"/>
<path d="M1.14525 42.7264H1.0105C0.4525 42.7264 0 43.1788 0 43.7369C0 44.2951 0.4525 44.7474 1.0105 44.7474H1.14525C1.70337 44.7474 2.15575 44.2951 2.15575 43.7369C2.15575 43.1788 1.70337 42.7264 1.14525 42.7264Z" fill="black"/>
<path d="M9.09476 17.1264C8.53663 17.1264 8.08426 17.5786 8.08426 18.1369V18.2716C8.08426 18.8299 8.53676 19.2821 9.09476 19.2821C9.65288 19.2821 10.1053 18.8297 10.1053 18.2716V18.1369C10.1053 17.5787 9.65288 17.1264 9.09476 17.1264Z" fill="black"/>
<path d="M46.821 13.0842C46.2629 13.0842 45.8105 13.5366 45.8105 14.0947V19.4842C45.8105 20.0425 46.263 20.4947 46.821 20.4947C47.379 20.4947 47.8315 20.0424 47.8315 19.4842V14.0947C47.8316 13.5366 47.3791 13.0842 46.821 13.0842Z" fill="black"/>
<path d="M54.9052 20.5621C54.3471 20.5621 53.8947 21.0144 53.8947 21.5726V24.8737C53.8947 25.432 54.3472 25.8842 54.9052 25.8842C55.4634 25.8842 55.9157 25.4319 55.9157 24.8737V21.5727C55.9157 21.0145 55.4634 20.5621 54.9052 20.5621Z" fill="black"/>
<path d="M54.9052 17.1264C54.3471 17.1264 53.8947 17.5786 53.8947 18.1369V18.2716C53.8947 18.8299 54.3472 19.2821 54.9052 19.2821C55.4634 19.2821 55.9157 18.8297 55.9157 18.2716V18.1369C55.9157 17.5787 55.4634 17.1264 54.9052 17.1264Z" fill="black"/>
<path d="M61.6421 21.1685H59.9579V16.7895C59.9579 14.7465 58.2957 13.0843 56.2526 13.0843H53.5579C52.9519 13.0843 52.3793 13.2306 51.8736 13.4896V8.70525C51.8736 6.66225 50.2115 5 48.1684 5H45.4736C43.4305 5 41.7684 6.66225 41.7684 8.70525V21.1684H22.2316V8.70525C22.2316 6.66225 20.5695 5 18.5264 5H15.8316C13.7885 5 12.1264 6.66225 12.1264 8.70525V13.4896C11.6209 13.2305 11.0483 13.0843 10.4421 13.0843H7.74738C5.70425 13.0843 4.04213 14.7465 4.04213 16.7895V21.1685H2.35788C1.05788 21.1685 0 22.2262 0 23.5264V26.2211C0 27.5212 1.05788 28.579 2.35788 28.579H4.04213V32.958C4.04213 35.001 5.70425 36.6632 7.74738 36.6632H10.4421C11.0481 36.6632 11.6208 36.5169 12.1264 36.2579V41.0422C12.1264 41.6482 12.2727 42.2209 12.5316 42.7265H9.76838C9.21025 42.7265 8.75788 43.1787 8.75788 43.737C8.75788 44.2952 9.21038 44.7475 9.76838 44.7475H54.2315C54.7896 44.7475 55.242 44.2952 55.242 43.737C55.242 43.1787 54.7895 42.7265 54.2315 42.7265H51.4684C51.7274 42.221 51.8736 41.6484 51.8736 41.0422V36.2579C52.3791 36.517 52.9518 36.6632 53.5579 36.6632H56.2526C58.2957 36.6632 59.9579 35.001 59.9579 32.958V28.579H61.6421C62.9422 28.579 64 27.5211 64 26.2211V23.5264C64 22.2262 62.9421 21.1685 61.6421 21.1685ZM4.04213 26.558H2.35788C2.17225 26.558 2.021 26.407 2.021 26.2211V23.5264C2.021 23.3406 2.17213 23.1895 2.35788 23.1895H4.04213V26.558ZM12.1264 32.958C12.1264 33.8868 11.3709 34.6423 10.4421 34.6423H7.74738C6.81863 34.6423 6.06313 33.8868 6.06313 32.958V16.7895C6.06313 15.8608 6.81863 15.1053 7.74738 15.1053H10.4421C11.3709 15.1053 12.1264 15.8608 12.1264 16.7895V32.958ZM20.2105 41.0421C20.2105 41.9709 19.455 42.7264 18.5263 42.7264H15.8315C14.9028 42.7264 14.1473 41.9709 14.1473 41.0421V8.70537C14.1473 7.77662 14.9028 7.02112 15.8315 7.02112H18.5263C19.455 7.02112 20.2105 7.77662 20.2105 8.70537V41.0421ZM22.2316 23.1895H41.7685V26.5579H22.2316V23.1895ZM21.8263 42.7264C22.0853 42.2209 22.2315 41.6482 22.2315 41.0421V28.579H41.7684V41.0421C41.7684 41.6481 41.9148 42.2208 42.1736 42.7264H21.8263ZM49.8526 41.0421C49.8526 41.9709 49.0971 42.7264 48.1684 42.7264H45.4736C44.5449 42.7264 43.7894 41.9709 43.7894 41.0421V8.70537C43.7894 7.77662 44.5449 7.02112 45.4736 7.02112H48.1684C49.0971 7.02112 49.8526 7.77662 49.8526 8.70537V41.0421ZM57.9369 32.958C57.9369 33.8868 57.1814 34.6423 56.2526 34.6423H53.5579C52.6291 34.6423 51.8736 33.8868 51.8736 32.958V16.7895C51.8736 15.8608 52.6291 15.1053 53.5579 15.1053H56.2526C57.1814 15.1053 57.9369 15.8608 57.9369 16.7895V32.958ZM61.979 26.2211C61.979 26.4069 61.8279 26.558 61.6421 26.558H59.9579V23.1896H61.6421C61.8277 23.1896 61.979 23.3406 61.979 23.5265V26.2211Z" fill="black"/>
<path d="M46.821 9.6485C46.2629 9.6485 45.8105 10.1009 45.8105 10.659V10.7937C45.8105 11.352 46.263 11.8042 46.821 11.8042C47.379 11.8042 47.8315 11.352 47.8315 10.7937V10.659C47.8316 10.1007 47.3791 9.6485 46.821 9.6485Z" fill="black"/>
<path d="M17.179 9.6485C16.6209 9.6485 16.1685 10.1009 16.1685 10.659V10.7937C16.1685 11.352 16.621 11.8042 17.179 11.8042C17.7371 11.8042 18.1895 11.352 18.1895 10.7937V10.659C18.1895 10.1007 17.737 9.6485 17.179 9.6485Z" fill="black"/>
<path d="M17.179 13.0842C16.6209 13.0842 16.1685 13.5366 16.1685 14.0947V19.4842C16.1685 20.0425 16.621 20.4947 17.179 20.4947C17.7371 20.4947 18.1895 20.0424 18.1895 19.4842V14.0947C18.1895 13.5366 17.737 13.0842 17.179 13.0842Z" fill="black"/>
<path d="M84.8047 29.6514C84.8047 29.4229 84.7695 29.2178 84.6992 29.0361C84.6348 28.8486 84.5117 28.6787 84.3301 28.5264C84.1484 28.3682 83.8936 28.2129 83.5654 28.0605C83.2373 27.9082 82.8125 27.75 82.291 27.5859C81.7109 27.3984 81.1602 27.1875 80.6387 26.9531C80.123 26.7188 79.666 26.4463 79.2676 26.1357C78.875 25.8193 78.5645 25.4531 78.3359 25.0371C78.1133 24.6211 78.002 24.1377 78.002 23.5869C78.002 23.0537 78.1191 22.5703 78.3535 22.1367C78.5879 21.6973 78.916 21.3223 79.3379 21.0117C79.7598 20.6953 80.2578 20.4521 80.832 20.2822C81.4121 20.1123 82.0479 20.0273 82.7393 20.0273C83.6826 20.0273 84.5059 20.1973 85.209 20.5371C85.9121 20.877 86.457 21.3428 86.8438 21.9346C87.2363 22.5264 87.4326 23.2031 87.4326 23.9648H84.8135C84.8135 23.5898 84.7344 23.2617 84.5762 22.9805C84.4238 22.6934 84.1895 22.4678 83.873 22.3037C83.5625 22.1396 83.1699 22.0576 82.6953 22.0576C82.2383 22.0576 81.8574 22.1279 81.5527 22.2686C81.248 22.4033 81.0195 22.5879 80.8672 22.8223C80.7148 23.0508 80.6387 23.3086 80.6387 23.5957C80.6387 23.8125 80.6914 24.0088 80.7969 24.1846C80.9082 24.3604 81.0723 24.5244 81.2891 24.6768C81.5059 24.8291 81.7725 24.9727 82.0889 25.1074C82.4053 25.2422 82.7715 25.374 83.1875 25.5029C83.8848 25.7139 84.4971 25.9512 85.0244 26.2148C85.5576 26.4785 86.0029 26.7744 86.3604 27.1025C86.7178 27.4307 86.9873 27.8027 87.1689 28.2188C87.3506 28.6348 87.4414 29.1064 87.4414 29.6338C87.4414 30.1904 87.333 30.6885 87.1162 31.1279C86.8994 31.5674 86.5859 31.9395 86.1758 32.2441C85.7656 32.5488 85.2764 32.7803 84.708 32.9385C84.1396 33.0967 83.5039 33.1758 82.8008 33.1758C82.168 33.1758 81.5439 33.0938 80.9287 32.9297C80.3135 32.7598 79.7539 32.5049 79.25 32.165C78.752 31.8252 78.3535 31.3916 78.0547 30.8643C77.7559 30.3369 77.6064 29.7129 77.6064 28.9922H80.252C80.252 29.3906 80.3135 29.7275 80.4365 30.0029C80.5596 30.2783 80.7324 30.501 80.9551 30.6709C81.1836 30.8408 81.4531 30.9639 81.7637 31.04C82.0801 31.1162 82.4258 31.1543 82.8008 31.1543C83.2578 31.1543 83.6328 31.0898 83.9258 30.9609C84.2246 30.832 84.4443 30.6533 84.585 30.4248C84.7314 30.1963 84.8047 29.9385 84.8047 29.6514ZM94.2178 28.4385H90.957V26.3818H94.2178C94.7217 26.3818 95.1318 26.2998 95.4482 26.1357C95.7646 25.9658 95.9961 25.7314 96.1426 25.4326C96.2891 25.1338 96.3623 24.7969 96.3623 24.4219C96.3623 24.041 96.2891 23.6865 96.1426 23.3584C95.9961 23.0303 95.7646 22.7666 95.4482 22.5674C95.1318 22.3682 94.7217 22.2686 94.2178 22.2686H91.8711V33H89.2344V20.2031H94.2178C95.2197 20.2031 96.0781 20.3848 96.793 20.748C97.5137 21.1055 98.0645 21.6006 98.4453 22.2334C98.8262 22.8662 99.0166 23.5898 99.0166 24.4043C99.0166 25.2305 98.8262 25.9453 98.4453 26.5488C98.0645 27.1523 97.5137 27.6182 96.793 27.9463C96.0781 28.2744 95.2197 28.4385 94.2178 28.4385ZM111.348 26.3027V26.9092C111.348 27.8818 111.216 28.7549 110.952 29.5283C110.688 30.3018 110.316 30.9609 109.836 31.5059C109.355 32.0449 108.781 32.458 108.113 32.7451C107.451 33.0322 106.716 33.1758 105.907 33.1758C105.104 33.1758 104.369 33.0322 103.701 32.7451C103.039 32.458 102.465 32.0449 101.979 31.5059C101.492 30.9609 101.114 30.3018 100.845 29.5283C100.581 28.7549 100.449 27.8818 100.449 26.9092V26.3027C100.449 25.3242 100.581 24.4512 100.845 23.6836C101.108 22.9102 101.48 22.251 101.961 21.7061C102.447 21.1611 103.021 20.7451 103.684 20.458C104.352 20.1709 105.087 20.0273 105.89 20.0273C106.698 20.0273 107.434 20.1709 108.096 20.458C108.764 20.7451 109.338 21.1611 109.818 21.7061C110.305 22.251 110.68 22.9102 110.943 23.6836C111.213 24.4512 111.348 25.3242 111.348 26.3027ZM108.685 26.9092V26.2852C108.685 25.6055 108.623 25.0078 108.5 24.4922C108.377 23.9766 108.195 23.543 107.955 23.1914C107.715 22.8398 107.422 22.5762 107.076 22.4004C106.73 22.2188 106.335 22.1279 105.89 22.1279C105.444 22.1279 105.049 22.2188 104.703 22.4004C104.363 22.5762 104.073 22.8398 103.833 23.1914C103.599 23.543 103.42 23.9766 103.297 24.4922C103.174 25.0078 103.112 25.6055 103.112 26.2852V26.9092C103.112 27.583 103.174 28.1807 103.297 28.7021C103.42 29.2178 103.602 29.6543 103.842 30.0117C104.082 30.3633 104.375 30.6299 104.721 30.8115C105.066 30.9932 105.462 31.084 105.907 31.084C106.353 31.084 106.748 30.9932 107.094 30.8115C107.439 30.6299 107.729 30.3633 107.964 30.0117C108.198 29.6543 108.377 29.2178 108.5 28.7021C108.623 28.1807 108.685 27.583 108.685 26.9092ZM113.246 20.2031H118.019C118.997 20.2031 119.838 20.3496 120.541 20.6426C121.25 20.9355 121.795 21.3691 122.176 21.9434C122.557 22.5176 122.747 23.2236 122.747 24.0615C122.747 24.7471 122.63 25.3359 122.396 25.8281C122.167 26.3145 121.842 26.7217 121.42 27.0498C121.004 27.3721 120.515 27.6299 119.952 27.8232L119.117 28.2627H114.969L114.951 26.2061H118.036C118.499 26.2061 118.883 26.124 119.188 25.96C119.492 25.7959 119.721 25.5674 119.873 25.2744C120.031 24.9814 120.11 24.6416 120.11 24.2549C120.11 23.8447 120.034 23.4902 119.882 23.1914C119.729 22.8926 119.498 22.6641 119.188 22.5059C118.877 22.3477 118.487 22.2686 118.019 22.2686H115.883V33H113.246V20.2031ZM120.4 33L117.482 27.2959L120.269 27.2783L123.222 32.877V33H120.4ZM129.972 20.2031V33H127.344V20.2031H129.972ZM133.909 20.2031V22.2686H123.468V20.2031H133.909Z" fill="black"/>
<rect x="69" width="3" height="50" fill="black"/>
</svg>
